# xmcd
#
# Track frame offsets:
#	150
#	17915
#	36332
#	49065
#	59812
#	73912
#	87322
#	100412
#	113107
#	127550
#
# Disc length: 1909 seconds
#
# Revision: 3
# Processed by: cddbd v1.5.2PL0 Copyright (c) Steve Scherf et al.
# Submitted via: EZCDAudioConverter 6.0.5.1
#
DISCID=8c07730a
DTITLE=Ronnie McDowell - Greatest Hits
DYEAR=1994
DGENRE=Country
TTITLE0=What's It Gonna Take
TTITLE1=(Change of Heart) Change to Me
TTITLE2=Older Women
TTITLE3=It's Only Make Believe
TTITLE4=You're Gonna Ruin My Bad Reputation
TTITLE5=All Tied Up
TTITLE6=Wandering Eyes
TTITLE7=In a New York Minute
TTITLE8=Bedroom Eyes
TTITLE9=Unchained Melody
EXTD=
EXTT0=
EXTT1=
EXTT2=
EXTT3=
EXTT4=
EXTT5=
EXTT6=
EXTT7=
EXTT8=
EXTT9=
PLAYORDER=
